<svg width="0" height="0" class="hidden">
  <symbol fill="none" xmlns="http://www.w3.org/2000/svg" viewBox="0 0 37 27" id="burger">
    <path fill-rule="evenodd" clip-rule="evenodd" d="M2.05556 0C0.920313 0 0 0.86346 0 1.92857C0 2.99368 0.920313 3.85714 2.05556 3.85714H34.9444C36.0797 3.85714 37 2.99368 37 1.92857C37 0.86346 36.0797 0 34.9444 0H2.05556ZM8.22222 13.5C8.22222 12.4349 9.14254 11.5714 10.2778 11.5714H34.9444C36.0797 11.5714 37 12.4349 37 13.5C37 14.5652 36.0797 15.4286 34.9444 15.4286H10.2778C9.14254 15.4286 8.22222 14.5652 8.22222 13.5ZM20.5556 25.0714C20.5556 24.0063 21.4758 23.1429 22.6111 23.1429H34.9444C36.0797 23.1429 37 24.0063 37 25.0714C37 26.1366 36.0797 27 34.9444 27H22.6111C21.4758 27 20.5556 26.1366 20.5556 25.0714Z" fill="#ECECEC"></path>
  </symbol>
  <symbol fill="none" xmlns="http://www.w3.org/2000/svg" viewBox="0 0 40 40" id="charity">
    <circle cx="20" cy="20" r="19.5" fill="#ECECEC" stroke="black"></circle>
    <path d="M28.5915 28.5171L19.346 27.2368L15.7231 23.6143C15.723 23.6142 15.7229 23.614 15.7227 23.6138C15.5886 23.4793 15.5884 23.2608 15.7216 23.1273C15.8093 23.0397 15.9118 23.0267 15.9651 23.0267C16.0181 23.0267 16.12 23.0396 16.2067 23.1265C16.2069 23.1268 16.2071 23.1269 16.2074 23.1271L18.9465 25.8662C18.9466 25.8663 18.9467 25.8663 18.9468 25.8665C18.9469 25.8666 18.947 25.8667 18.9471 25.8668C18.9549 25.8747 18.9636 25.8812 18.9716 25.889C18.9835 25.8999 18.9953 25.9113 19.0077 25.9214C19.4098 26.293 19.9219 26.4811 20.4355 26.4811C20.9748 26.4811 21.5147 26.276 21.9258 25.8658C22.7462 25.0439 22.746 23.7074 21.9253 22.8866L14.4057 15.3668C14.2561 15.2171 14.0532 15.1331 13.8415 15.1331H5.79784C5.35711 15.1331 5 15.4903 5 15.9309C5 16.3715 5.35711 16.7288 5.79784 16.7288H13.5111L20.7968 24.0145C20.996 24.2137 20.9958 24.5384 20.7975 24.737C20.5982 24.9359 20.2734 24.9359 20.0742 24.737C20.0739 24.7367 20.0735 24.7364 20.0731 24.736L17.3367 21.9998C17.3366 21.9997 17.3365 21.9995 17.3362 21.9993C17.336 21.999 17.3358 21.9989 17.3356 21.9987C17.3353 21.9984 17.3349 21.998 17.3345 21.9977C16.969 21.6321 16.4827 21.4309 15.9651 21.4309C15.4472 21.4309 14.9602 21.6325 14.5931 21.9991C13.8582 22.7354 13.8414 23.9208 14.5386 24.6804C14.5433 24.6862 14.5488 24.6914 14.5536 24.6969C14.5671 24.7113 14.5789 24.7265 14.5929 24.7405C14.5931 24.7407 14.5933 24.7409 14.5936 24.7411L14.5937 24.7413L18.4073 28.5545C18.5301 28.6774 18.6897 28.7567 18.8619 28.7806L28.3655 30.0966C28.5446 30.1231 28.8829 30.2427 28.8829 30.5069C28.8832 30.6511 28.8098 30.746 28.766 30.7898C28.7221 30.8337 28.6268 30.9075 28.482 30.9075H17.853L9.39352 22.4469C9.24395 22.2973 9.04098 22.2132 8.82929 22.2132H5.79784C5.35711 22.2132 5 22.5704 5 23.011C5 23.4516 5.35711 23.8089 5.79784 23.8089H8.49888L16.9584 32.2694C17.108 32.419 17.3109 32.5031 17.5226 32.5031H28.482C29.0159 32.5031 29.5176 32.2952 29.8949 31.9175C30.2718 31.5402 30.4791 31.0386 30.4785 30.5061C30.4786 29.4991 29.7055 28.6816 28.5915 28.5171Z" fill="black"></path>
    <path d="M30.1267 8C28.9152 8 27.7181 8.45009 26.7896 9.23175C25.8611 8.44998 24.6643 8 23.4532 8C20.7209 8 18.5806 10.1403 18.5806 12.8728C18.5806 16.1172 21.3579 18.5782 25.205 21.9804L26.2263 22.9987C26.382 23.154 26.5858 23.2315 26.7897 23.2315C26.9934 23.2315 27.1971 23.154 27.3527 22.999L28.3751 21.9805C32.222 18.5786 34.9994 16.1173 34.9994 12.8728C34.9994 10.1403 32.859 8 30.1267 8ZM27.3002 20.8009C27.2884 20.8113 27.2768 20.8222 27.2657 20.8333L26.7899 21.3073L26.3148 20.8336C26.3035 20.8223 26.2919 20.8113 26.28 20.8008C22.3818 17.3534 20.1762 15.2854 20.1762 12.8726C20.1762 11.0044 21.585 9.59556 23.4532 9.59556C24.4711 9.59556 25.5162 10.0836 26.1803 10.8692C26.3319 11.0485 26.5549 11.152 26.7897 11.152C27.0244 11.152 27.2474 11.0486 27.399 10.8692C28.0632 10.0836 29.1085 9.59556 30.127 9.59556C31.9952 9.59556 33.4039 11.0044 33.4039 12.8726C33.4037 15.2857 31.1982 17.3536 27.3002 20.8009Z" fill="black"></path>
  </symbol>
  <symbol fill="none" xmlns="http://www.w3.org/2000/svg" viewBox="0 0 25 25" id="close">
    <path d="M0.477539 22.2168C-0.15918 22.8535 -0.15918 23.8857 0.477539 24.5224C1.11426 25.1592 2.14661 25.1592 2.78333 24.5224L0.477539 22.2168ZM13.6529 13.6529C14.2896 13.0161 14.2896 11.9839 13.6529 11.3472C13.0161 10.7105 11.9839 10.7105 11.3472 11.3472L13.6529 13.6529ZM11.3472 11.3472C10.7105 11.9839 10.7105 13.0161 11.3472 13.6529C11.9839 14.2896 13.0161 14.2896 13.6529 13.6529L11.3472 11.3472ZM24.5224 2.78333C25.1592 2.14661 25.1592 1.11426 24.5224 0.477539C23.8857 -0.15918 22.8535 -0.15918 22.2168 0.477539L24.5224 2.78333ZM13.6529 11.3472C13.0161 10.7105 11.9839 10.7105 11.3472 11.3472C10.7105 11.9839 10.7105 13.0161 11.3472 13.6529L13.6529 11.3472ZM22.2168 24.5224C22.8535 25.1592 23.8857 25.1592 24.5224 24.5224C25.1592 23.8857 25.1592 22.8535 24.5224 22.2168L22.2168 24.5224ZM11.3472 13.6529C11.9839 14.2896 13.0161 14.2896 13.6529 13.6529C14.2896 13.0161 14.2896 11.9839 13.6529 11.3472L11.3472 13.6529ZM2.78333 0.477539C2.14661 -0.15918 1.11426 -0.15918 0.477539 0.477539C-0.15918 1.11426 -0.15918 2.14661 0.477539 2.78333L2.78333 0.477539ZM2.78333 24.5224L13.6529 13.6529L11.3472 11.3472L0.477539 22.2168L2.78333 24.5224ZM13.6529 13.6529L24.5224 2.78333L22.2168 0.477539L11.3472 11.3472L13.6529 13.6529ZM11.3472 13.6529L22.2168 24.5224L24.5224 22.2168L13.6529 11.3472L11.3472 13.6529ZM13.6529 11.3472L2.78333 0.477539L0.477539 2.78333L11.3472 13.6529L13.6529 11.3472Z" fill="#ECECEC"></path>
  </symbol>
  <symbol fill="none" xmlns="http://www.w3.org/2000/svg" viewBox="0 0 32 32" id="info">
    <path d="M16 30.9993C24.2839 30.9993 31 24.2832 31 15.9993C31 7.71543 24.2839 1 16 1C7.71612 1 1 7.71543 1 15.9993C1 24.2832 7.71612 30.9993 16 30.9993Z" fill="white" stroke="black" stroke-width="0.600238"></path>
    <path d="M18.0572 25.5822V26.0822H18.5572H20.1743V26.4942H11.8247V26.0822H13.4418H13.9418V25.5822V14.0613V13.5613H13.4418H11.8247V13.1485H18.0572V25.5822Z" stroke="black"></path>
    <path d="M18.6754 8.00967C18.6754 9.48782 17.4776 10.6856 15.9994 10.6856C14.5205 10.6856 13.3228 9.48775 13.3228 8.00967C13.3228 6.53144 14.5206 5.333 15.9994 5.333C17.4774 5.333 18.6754 6.53137 18.6754 8.00967Z" stroke="black"></path>
  </symbol>
</svg>
