<svg width="55" height="55" viewBox="0 0 55 55" fill="none" xmlns="http://www.w3.org/2000/svg">
  <path d="M55 27.2511C55 42.3015 42.6878 54.5022 27.5 54.5022C12.3122 54.5022 0 42.3015 0 27.2511C0 12.2007 12.3122 0 27.5 0C42.6878 0 55 12.2007 55 27.2511ZM4.53823 27.2511C4.53823 39.8178 14.8186 50.0051 27.5 50.0051C40.1814 50.0051 50.4618 39.8178 50.4618 27.2511C50.4618 14.6844 40.1814 4.49716 27.5 4.49716C14.8186 4.49716 4.53823 14.6844 4.53823 27.2511Z" fill="white"/>
  <path d="M54.4976 27.2511C54.4976 41.9478 42.4747 53.8619 27.6438 53.8619C12.8129 53.8619 0.790039 41.9478 0.790039 27.2511C0.790039 12.5545 12.8129 0.640381 27.6438 0.640381C42.4747 0.640381 54.4976 12.5545 54.4976 27.2511ZM5.22162 27.2511C5.22162 39.5225 15.2604 49.4704 27.6438 49.4704C40.0273 49.4704 50.066 39.5225 50.066 27.2511C50.066 14.9797 40.0273 5.03186 27.6438 5.03186C15.2604 5.03186 5.22162 14.9797 5.22162 27.2511Z" fill="white"/>
  <path d="M14.5195 14.5359C12.9269 15.5684 11.5849 16.9377 10.5897 18.5453C9.59463 20.1529 8.97111 21.9589 8.76403 23.8336C8.55696 25.7083 8.77135 27.6053 9.39201 29.3882C10.0126 31.171 11.024 32.7956 12.3534 34.145L12.9252 33.5919C11.6782 32.326 10.7295 30.8022 10.1474 29.13C9.56526 27.4576 9.36408 25.6783 9.55837 23.9198C9.75259 22.1613 10.3375 20.4672 11.2709 18.9593C12.2043 17.4514 13.4632 16.167 14.957 15.1985L14.5195 14.5359Z" fill="white"/>
  <path d="M14.801 16.9141C12.6802 19.0424 11.4888 21.929 11.4888 24.9388C11.4888 27.9487 12.6802 30.8353 14.801 32.9636L15.2968 32.4661C13.3075 30.4697 12.1899 27.7621 12.1899 24.9388C12.1899 22.1156 13.3075 19.408 15.2968 17.4116L14.801 16.9141Z" fill="white"/>
  <path d="M16.0143 20.3022C14.9113 21.5694 14.2996 23.1842 14.2887 24.8577C14.2778 26.531 14.8684 28.1536 15.9549 29.4347L16.5476 28.9411C15.5796 27.7995 15.0533 26.3537 15.063 24.8626C15.0727 23.3715 15.6177 21.9325 16.6006 20.8034L16.0143 20.3022Z" fill="white"/>
  <path d="M40.9111 14.5359C42.5037 15.5684 43.8457 16.9377 44.8409 18.5453C45.836 20.1529 46.4595 21.9589 46.6666 23.8336C46.8737 25.7083 46.6593 27.6053 46.0386 29.3882C45.418 31.171 44.4066 32.7956 43.0772 34.145L42.5054 33.5919C43.7525 32.326 44.7011 30.8022 45.2832 29.13C45.8654 27.4576 46.0665 25.6783 45.8722 23.9198C45.678 22.1613 45.0931 20.4672 44.1597 18.9593C43.2263 17.4514 41.9675 16.167 40.4736 15.1985L40.9111 14.5359Z" fill="white"/>
  <path d="M40.5604 17.0054C42.6797 19.1378 43.8704 22.0299 43.8704 25.0455C43.8704 28.0611 42.6797 30.9533 40.5604 33.0857L40.0649 32.5872C42.0529 30.587 43.1697 27.8742 43.1697 25.0455C43.1697 22.2169 42.0529 19.504 40.0649 17.5039L40.5604 17.0054Z" fill="white"/>
  <path d="M39.4251 20.3733C40.5225 21.6404 41.1311 23.2553 41.142 24.9287C41.1528 26.6021 40.5651 28.2246 39.4842 29.5058L38.8945 29.0122C39.8576 27.8705 40.3813 26.4247 40.3716 24.9336C40.362 23.4426 39.8197 22.0036 38.8418 20.8744L39.4251 20.3733Z" fill="white"/>
  <path d="M35.1828 15.5823C35.1828 13.6008 34.3886 11.7006 32.9746 10.2995C31.5608 8.89841 29.6432 8.11133 27.6437 8.11133C25.6441 8.11133 23.7265 8.89841 22.3127 10.2995C20.8988 11.7006 20.1045 13.6008 20.1045 15.5823H25.2939C25.2939 14.9647 25.5415 14.3725 25.9822 13.9358C26.4228 13.4992 27.0205 13.2538 27.6437 13.2538C28.2668 13.2538 28.8645 13.4992 29.3051 13.9358C29.7458 14.3725 29.9934 14.9647 29.9934 15.5823H35.1828Z" fill="white"/>
  <path d="M35.1828 30.0972C35.1828 31.9653 34.3886 33.757 32.9746 35.0781C31.5608 36.3991 29.6432 37.1412 27.6437 37.1412C25.6441 37.1412 23.7265 36.3991 22.3127 35.0781C20.8988 33.757 20.1045 31.9653 20.1045 30.0972H27.6437H35.1828Z" fill="white"/>
  <path d="M34.1055 17.2185H20.9658V19.9223H34.1055V17.2185Z" fill="white"/>
  <path d="M36.4034 18.0015H18.8838V19.211H36.4034V18.0015Z" fill="white"/>
  <path d="M34.1055 22.4839H20.9658V25.1877H34.1055V22.4839Z" fill="white"/>
  <path d="M36.4034 23.2671H18.8838V24.4767H36.4034V23.2671Z" fill="white"/>
  <path d="M25.9917 39.2047L26.5302 36.9634L27.5713 37.1057L28.6125 36.9634L29.2946 39.2047V45.8218H25.9917V39.2047Z" fill="white"/>
  <path d="M33.5314 45.8215H21.4688V46.2484H33.5314V45.8215Z" fill="white"/>
  <path d="M24.1969 44.2566H22.4019V45.9642H24.1969V44.2566Z" fill="white"/>
  <path d="M32.8854 44.114H31.0903V45.8217H32.8854V44.114Z" fill="white"/>
  <path d="M35.6851 46.8179H19.6016C18.7688 46.8179 18.0938 47.4868 18.0938 48.3121V49.9485C18.0938 50.7738 18.7688 51.4427 19.6016 51.4427H35.6851C36.5179 51.4427 37.193 50.7738 37.193 49.9485V48.3121C37.193 47.4868 36.5179 46.8179 35.6851 46.8179Z" fill="white"/>
  <path d="M17.6993 51.3H27.6438V54.9999C27.6438 54.9999 26.2078 54.9999 21.8997 54.7687C17.5916 54.5375 16.73 53.8437 16.73 53.8437V52.7536L17.6993 52.8196V51.3Z" fill="white"/>
  <path d="M37.5876 51.3H27.6431V54.9999C27.6431 54.9999 29.0791 54.9999 33.3872 54.7687C37.6953 54.5375 38.5569 53.8437 38.5569 53.8437V52.7536L37.5876 52.8196V51.3Z" fill="white"/>
  <path fill-rule="evenodd" clip-rule="evenodd" d="M25.2739 26.8242H20.9658V31.8048H34.4645V26.8242H30.0128C30.0128 27.1279 29.9515 27.4642 29.8325 27.7447C29.7134 28.0253 29.5389 28.2802 29.3189 28.4949C29.0988 28.7097 28.8376 28.88 28.5501 28.9962C28.2627 29.1124 27.9546 29.1722 27.6434 29.1722C27.3322 29.1722 27.0241 29.1124 26.7366 28.9962C26.4492 28.88 26.1879 28.7097 25.9679 28.4949C25.7479 28.2802 25.5733 28.0253 25.4543 27.7447C25.3352 27.4642 25.2739 27.1279 25.2739 26.8242Z" fill="white"/>
</svg>
