<svg width="37" height="27" viewBox="0 0 37 27" fill="none" xmlns="http://www.w3.org/2000/svg">
  <path fill-rule="evenodd" clip-rule="evenodd" d="M2.05556 0C0.920313 0 0 0.86346 0 1.92857C0 2.99368 0.920313 3.85714 2.05556 3.85714H34.9444C36.0797 3.85714 37 2.99368 37 1.92857C37 0.86346 36.0797 0 34.9444 0H2.05556ZM8.22222 13.5C8.22222 12.4349 9.14254 11.5714 10.2778 11.5714H34.9444C36.0797 11.5714 37 12.4349 37 13.5C37 14.5652 36.0797 15.4286 34.9444 15.4286H10.2778C9.14254 15.4286 8.22222 14.5652 8.22222 13.5ZM20.5556 25.0714C20.5556 24.0063 21.4758 23.1429 22.6111 23.1429H34.9444C36.0797 23.1429 37 24.0063 37 25.0714C37 26.1366 36.0797 27 34.9444 27H22.6111C21.4758 27 20.5556 26.1366 20.5556 25.0714Z" fill="#ECECEC"/>
</svg>
