<svg width="25" height="25" viewBox="0 0 25 25" fill="none" xmlns="http://www.w3.org/2000/svg">
  <path d="M0.477539 22.2168C-0.15918 22.8535 -0.15918 23.8857 0.477539 24.5224C1.11426 25.1592 2.14661 25.1592 2.78333 24.5224L0.477539 22.2168ZM13.6529 13.6529C14.2896 13.0161 14.2896 11.9839 13.6529 11.3472C13.0161 10.7105 11.9839 10.7105 11.3472 11.3472L13.6529 13.6529ZM11.3472 11.3472C10.7105 11.9839 10.7105 13.0161 11.3472 13.6529C11.9839 14.2896 13.0161 14.2896 13.6529 13.6529L11.3472 11.3472ZM24.5224 2.78333C25.1592 2.14661 25.1592 1.11426 24.5224 0.477539C23.8857 -0.15918 22.8535 -0.15918 22.2168 0.477539L24.5224 2.78333ZM13.6529 11.3472C13.0161 10.7105 11.9839 10.7105 11.3472 11.3472C10.7105 11.9839 10.7105 13.0161 11.3472 13.6529L13.6529 11.3472ZM22.2168 24.5224C22.8535 25.1592 23.8857 25.1592 24.5224 24.5224C25.1592 23.8857 25.1592 22.8535 24.5224 22.2168L22.2168 24.5224ZM11.3472 13.6529C11.9839 14.2896 13.0161 14.2896 13.6529 13.6529C14.2896 13.0161 14.2896 11.9839 13.6529 11.3472L11.3472 13.6529ZM2.78333 0.477539C2.14661 -0.15918 1.11426 -0.15918 0.477539 0.477539C-0.15918 1.11426 -0.15918 2.14661 0.477539 2.78333L2.78333 0.477539ZM2.78333 24.5224L13.6529 13.6529L11.3472 11.3472L0.477539 22.2168L2.78333 24.5224ZM13.6529 13.6529L24.5224 2.78333L22.2168 0.477539L11.3472 11.3472L13.6529 13.6529ZM11.3472 13.6529L22.2168 24.5224L24.5224 22.2168L13.6529 11.3472L11.3472 13.6529ZM13.6529 11.3472L2.78333 0.477539L0.477539 2.78333L11.3472 13.6529L13.6529 11.3472Z" fill="#ECECEC"/>
</svg>
